<?xml version="1.0" encoding="utf-8"?>
<!-- Generator: Adobe Illustrator 25.2.1, SVG Export Plug-In . SVG Version: 6.00 Build 0)  -->
<svg version="1.1" id="图层_1" xmlns="http://www.w3.org/2000/svg" xmlns:xlink="http://www.w3.org/1999/xlink" x="0px" y="0px"
	 viewBox="0 0 550 799.7" style="enable-background:new 0 0 550 799.7;" xml:space="preserve">
<style type="text/css">
	.st0{fill:#AFAFAF;}
	.st1{fill:#333333;}
	.st2{fill:#F4A337;}
	.st3{fill:#777777;}
	.st4{fill:#E5AA33;}
</style>
<g id="手">
	<g>
		<path class="st0" d="M539.5,398.2l-65.1,46.5c-3.9,2.8-9.3,1.9-12.1-2l-9.3-13.1c-2.8-3.9-1.9-9.3,2-12.1l65.1-46.5
			c3.9-2.8,9.3-1.9,12.1,2l9.3,13.1C544.4,390,543.5,395.5,539.5,398.2z"/>
		<path class="st0" d="M468.3,298.4l-65.1,46.5c-3.9,2.8-9.3,1.9-12.1-2l-9.3-13.1c-2.8-3.9-1.9-9.3,2-12.1l65.1-46.5
			c3.9-2.8,9.3-1.9,12.1,2l9.3,13.1C473.1,290.1,472.2,295.6,468.3,298.4z"/>
		
			<rect x="449.3" y="313.5" transform="matrix(0.814 -0.5809 0.5809 0.814 -122.0457 334.7931)" class="st0" width="24.8" height="88.9"/>
	</g>
	<g>
		<path class="st1" d="M377.8,378.6c0,0-0.2-8.8,6.5-14c7.4-5.8,27.5-34.9,30.3-35.5c2.8-0.5,4.6-0.4,4.6-0.4l12.9-14.6
			c0,0,3.9-2.3,7.1,0.3c3.2,2.6,1.3,9.5,1.3,9.5s20.4-18.3,25.4-18.3s18.3-0.8,20.8-0.8s10.5,2.5,10,5.4c-0.5,5.7-7.4,10.2-7.4,10.2
			s19.2,11.6,21.2,13.1c2,1.5,2.6,3.7,0.7,6.6c-4.4,6.6-19.1,1.4-19.1,1.4s9.6,5,13.4,10.3s5.9,8.3,8.1,12.7c2.7,5-6.3,7.6-6.3,7.6
			s-0.4,12.2-0.8,15.6c-0.4,3.3-5.9,11.3-9.5,11.2c-4.6,0-6.8-10.7-6.8-10.7s-25.9,18.7-34.7,24s-29.9,12.5-29.9,12.5L377.8,378.6z"
			/>
		<path class="st2" d="M451.6,334.4l-38.7,32.2l-8.1-9.7l34.6-28.8c3.5-3,8.8-2.5,11.8,1.1l0.8,0.9
			C453.1,331.4,453,333.3,451.6,334.4z"/>
		<path class="st2" d="M465.6,350.3l-38,27.6l-7.4-10.2l35.1-25.5c3.6-2.6,8.7-1.8,11.3,1.8l0,0C468.1,346,467.6,348.9,465.6,350.3z
			"/>
		<path class="st2" d="M478.4,366.6l-37.8,27.5l-8.5-11.7l38.7-28.1c2-1.4,4.7-1,6.2,1l2.7,3.7C481.4,361.3,480.9,364.8,478.4,366.6
			z"/>
		<path class="st2" d="M487.8,382l-44.5,28.1l-6.3-9.9l46-29.1c1.9-1.2,4.3-0.8,5.6,0.9c0.1,0.2,0.2,0.4,0.3,0.6l1.1,3
			C490.9,377.9,490,380.6,487.8,382z"/>
		<path class="st2" d="M489,367.9c0,0,3.6,2.8,4,5.7c0.4,2.9,0.4,4.8,0.4,4.8h6.5c2.1,0,3.8-1.8,3.8-3.9l-0.1-2.9
			c-0.1-2-1.7-3.6-3.8-3.6H489V367.9z"/>
		<path class="st2" d="M478.5,349.6c0,0,3.4,0.2,5.3,3.7c1.9,3.6,1.2,6.1,1.2,6.1l12.4-4.4c0,0,0.8-2,0-4.6s-2.5-3.8-2.5-3.8
			L478.5,349.6z"/>
		<path class="st2" d="M461.6,335.9c0,0,4.4,0.1,6.8,2s2.5,4.9,2.5,4.9s15.8-9.6,16.4-11.2s-1.2-7.1-5.9-6.9
			C474.1,325,461.6,335.9,461.6,335.9z"/>
		<path class="st2" d="M444.8,322.8c-0.2,0,5.7-0.3,8.2,0.9c2.5,1.2,4.1,3.4,4.1,3.4l14-13c0,0,0.2-4.8-5.1-5.1
			c-5.3-0.3-6.3,0.8-6.3,0.8L444.8,322.8z"/>
		<path class="st2" d="M401.5,346.3l6.7,4.1c0,0,17.5-14.4,18-16.2c0.5-1.8-3.7-5-7-4.1S401.5,346.3,401.5,346.3z"/>
		<path class="st2" d="M424.4,327c0,0,4.1,4.3,5,3.6c0.9-0.7,7.9-8.6,8-11.9s-2.1-3.9-3.5-3.3C432.5,316.1,424.4,327,424.4,327z"/>
		<path class="st2" d="M467.9,305.4c0,0,4.4,1.4,5.8,3.6s1.7,5,1.7,5s18.8,0.4,21-3.3c2.2-3.7-8.1-5.9-9.7-5.9
			C486.5,304.7,467.9,305.4,467.9,305.4z"/>
		<path class="st2" d="M511.1,370.9l-0.3-0.4c0,0,0,0,0.1,0L511.1,370.9z"/>
		<path class="st2" d="M511.6,339.5c-0.1,0.1-0.1,0.2-0.2,0.4c-1.3,0-4.7,0-8.2-0.3c-4.6-0.4-12.7-8.2-12.7-8.2s0-4.7-3.1-7.2
			c-3-2.4-7.1-1.7-7.5-1.6l9.6-2.2l0,0c0.6,0.3,19.2,11.6,21.2,13.1C512.3,334.8,513,336.9,511.6,339.5z"/>
		<path class="st2" d="M511,370.4C510.9,370.4,510.9,370.4,511,370.4l-9.4-13.3c0,0,0.5-2.6,0.4-5.3c0-0.2,0-0.4,0-0.7
			c-0.2-2.7-2.7-5.4-3.1-5.7c2.5,1.8,5.2,4,6.8,6.2c3.8,5.3,6,8.3,8.1,12.7C515.2,367.1,513.1,369.1,511,370.4z"/>
	</g>
	<g>
		<path class="st3" d="M395.9,373.4c-18.9,0-34.2,15.3-34.2,34.2c0,18.9,15.3,34.2,34.2,34.2c18.9,0,34.2-15.3,34.2-34.2
			C430.1,388.7,414.8,373.4,395.9,373.4z M395.9,428.8c-11.7,0-21.2-9.5-21.2-21.2s9.5-21.2,21.2-21.2s21.2,9.5,21.2,21.2
			S407.6,428.8,395.9,428.8z"/>
		<path class="st4" d="M395.9,386.4c-11.7,0-21.2,9.5-21.2,21.2s9.5,21.2,21.2,21.2s21.2-9.5,21.2-21.2S407.6,386.4,395.9,386.4z
			 M395.9,418c-5.7,0-10.4-4.6-10.4-10.4c0-5.7,4.6-10.4,10.4-10.4c5.7,0,10.4,4.7,10.4,10.4C406.1,413.4,401.6,418,395.9,418z"/>
		<path class="st1" d="M406.1,407.6c0,5.7-4.6,10.4-10.4,10.4c-5.7,0-10.4-4.6-10.4-10.4c0-5.7,4.6-10.4,10.4-10.4
			C401.6,397.2,406.1,401.9,406.1,407.6z"/>
	</g>
</g>
</svg>
