<?xml version="1.0" encoding="utf-8"?>
<!-- Generator: Adobe Illustrator 25.2.1, SVG Export Plug-In . SVG Version: 6.00 Build 0)  -->
<svg version="1.1" id="图层_1" xmlns="http://www.w3.org/2000/svg" xmlns:xlink="http://www.w3.org/1999/xlink" x="0px" y="0px"
	 viewBox="0 0 550 799.7" style="enable-background:new 0 0 550 799.7;" xml:space="preserve">
<style type="text/css">
	.st0{fill:#333333;}
	.st1{fill:#F4A337;}
	.st2{fill:#17F700;}
	.st3{fill:#777777;}
	.st4{fill:#E5AA33;}
</style>
<g id="小臂">
	<g>
		<path class="st0" d="M170.7,616c0,0,29.7,18.3,50.9,9c8.7-3.8,58.1-35.9,104.5-83.8c50.9-52.4,99.6-116.1,99.6-116.1l-54.3-40.8
			c0,0-188.1,118.5-196.4,130.6c-8.3,12.1-8.6,19.5-8.6,19.5L170.7,616z"/>
		<path class="st1" d="M425.8,425.2c0,0-48.7,63.6-99.6,116.1c-38.4,39.5-78.8,68.4-96.6,79.3c0.8-9.9,5.4-48.8,30.7-70.8
			c29.2-25.3,97.6-78.9,97.6-78.9s33.8-23.1,25.3-45.1c-7.2-18.6-26-26.8-31.6-28.9c12.3-7.8,19.9-12.6,19.9-12.6L425.8,425.2z"/>
		<path class="st1" d="M231.2,559.1c0,7.2-5.2,35.9-5.2,35.9h-17l-4.2,32.5c-17.3-1.2-34.1-11.5-34.1-11.5l-4.2-81.5
			c0,0,0.3-7.4,8.6-19.5c1.5-2.3,9.3-8.2,20.9-16.4C196,498.6,231.2,532.2,231.2,559.1z"/>
		<path class="st1" d="M276.8,525.6L248.5,547c-1.8,1.4-4.4,1-5.8-0.8l0,0c-1.4-1.8-1-4.4,0.8-5.8l28.3-21.4L276.8,525.6z"/>
		<path class="st1" d="M371.2,454.2l-86.6,65.5l-5-6.6l86.6-65.5c1.8-1.4,4.4-1,5.8,0.8l0,0C373.4,450.2,373.1,452.8,371.2,454.2z"
			/>
		<path class="st2" d="M219.2,601.8c-4.7,0-8.5,3.8-8.5,8.5s3.8,8.5,8.5,8.5s8.5-3.8,8.5-8.5S224,601.8,219.2,601.8z M219.2,613.7
			c-1.9,0-3.4-1.5-3.4-3.4s1.5-3.4,3.4-3.4s3.4,1.5,3.4,3.4C222.7,612.2,221.2,613.7,219.2,613.7z"/>
		<g>
			<circle class="st0" cx="263.5" cy="577.5" r="4.8"/>
			<circle class="st0" cx="279.4" cy="563.2" r="4.8"/>
			<circle class="st0" cx="295.1" cy="548.9" r="4.8"/>
			<circle class="st0" cx="311" cy="534.6" r="4.8"/>
			<circle class="st0" cx="326.8" cy="520.3" r="4.8"/>
			<circle class="st0" cx="342.6" cy="506" r="4.8"/>
			<circle class="st0" cx="358.2" cy="491.7" r="4.8"/>
		</g>
		<g>
			<path class="st1" d="M246.5,497.2l-18.8,14.1c-3.8,2.9-9.2,2.2-12.2-1.5l-12.9-15.7c9.4-6.6,21.1-14.5,33.9-23l11.3,13.2
				C251.2,488.2,250.6,494.1,246.5,497.2z"/>
			<path class="st1" d="M283.2,469.9l-17.5,13.2c-3.6,2.7-8.6,2.1-11.4-1.4l-12-14.4c10.3-6.8,21.3-14,32.2-21.1l10,11.6
				C287.8,461.5,287.1,467.1,283.2,469.9z"/>
			<path class="st1" d="M319,443.7l-16.3,12.2c-3.3,2.5-8,1.9-10.6-1.3l-10.7-12.7c10.2-6.6,20.5-13.2,30.1-19.4l8.6,10
				C323.1,435.9,322.6,441,319,443.7z"/>
			<path class="st1" d="M351.1,420l-15,11.3c-3,2.3-7.3,1.8-9.8-1.2l-9.2-11.2l27.8-17.6l7.3,8.5C354.9,412.8,354.4,417.5,351.1,420
				z"/>
		</g>
	</g>
	<g>
		<path class="st3" d="M159.8,533.9c-23.1,0-41.8,18.7-41.8,41.8s18.7,41.8,41.8,41.8s41.8-18.7,41.8-41.8S182.8,533.9,159.8,533.9z
			 M159.8,601.5c-14.3,0-25.9-11.6-25.9-25.9c0-14.3,11.6-25.9,25.9-25.9s25.9,11.6,25.9,25.9C185.6,590,174.1,601.5,159.8,601.5z"
			/>
		<path class="st4" d="M159.8,549.8c-14.3,0-25.9,11.6-25.9,25.9c0,14.3,11.6,25.9,25.9,25.9s25.9-11.6,25.9-25.9
			C185.6,561.4,174.1,549.8,159.8,549.8z M159.8,588.4c-7,0-12.7-5.7-12.7-12.7s5.7-12.7,12.7-12.7s12.7,5.7,12.7,12.7
			S166.8,588.4,159.8,588.4z"/>
		<path class="st0" d="M172.4,575.7c0,7-5.7,12.7-12.7,12.7s-12.7-5.7-12.7-12.7s5.7-12.7,12.7-12.7
			C166.8,563,172.4,568.7,172.4,575.7z"/>
	</g>
</g>
</svg>
