<?xml version="1.0" encoding="utf-8"?>
<!-- Generator: Adobe Illustrator 25.2.1, SVG Export Plug-In . SVG Version: 6.00 Build 0)  -->
<svg version="1.1" id="图层_1" xmlns="http://www.w3.org/2000/svg" xmlns:xlink="http://www.w3.org/1999/xlink" x="0px" y="0px"
	 viewBox="0 0 550 799.7" style="enable-background:new 0 0 550 799.7;" xml:space="preserve">
<style type="text/css">
	.st0{fill:#17F700;}
	.st1{fill:#333333;}
	.st2{opacity:0.72;fill:#EFEFEF;enable-background:new    ;}
	.st3{fill:none;stroke:#333333;stroke-width:5;stroke-linecap:round;stroke-linejoin:round;stroke-miterlimit:10;}
	.st4{fill:#777777;}
	.st5{fill:#F4A337;}
	.st6{fill:#B20426;}
	.st7{fill:none;stroke:#17F700;stroke-width:10.6454;stroke-linecap:round;stroke-miterlimit:10;}
	.st8{fill:#E5AA33;}
	.st9{fill:#AFAFAF;}
</style>
<g id="main">
	<path class="st0" d="M144.2,657.9c9.2,19.9,45.1,40.4,45.1,40.4h179.1c0,0,51-41.9,56.7-53s5.6-17.7,7.3-39.5
		c1.7-21.8,1-40.9,1-40.9s30.4-25.4,26.8-60c-2.3-22.8-17.5-46-17.9-49.4c-0.4-3.3,73.4-127.1,28.7-157.9
		c-25.6-17.5-77.4-14.5-105.6-13s-47.9-5.7-54.4-8.8c-6.5-3.1-6.1-20.7-6.1-20.7s27.4,2.2,33.8-10.4c4-8.3,4-14.3,3.5-17.5
		s4.3-9.6,3.6-12.4c-1.4-5.7,2.9-5.7,4.3-9.7s1.5-6,1.5-6s9.6,0.6,12.9-1.9c3.2-2.7,4.2-6.2,4.2-6.2v-45.3c0,0,6.8-7.7,6.8-9.8
		c0-3.1,0-10.8,0-10.8s17.3-17.8,13.5-40c-3.8-22.1-18.4-37.2-25.5-41.8c-7.2-4.6-12.8-8-17.3-7.9c-0.4,0-35.2-26.8-82.3-21.7
		s-74,40.8-74,40.8s-7.9-7.1-16.2-6c-8.3,1.2-9.6,4-9.6,4s-10.8-1.8-16.2,3.3c-5.5,5.1-8,9.4-8,9.4s-12.6,3.2-16.8,12.5
		s-2.5,14.1-2.5,14.1s-2.7,3.3-4,8.4s-1,12.2-1,12.2s-2.3,7.4-0.9,13.6c1.4,6.1,5.4,10.3,5.4,10.3s-0.6,11.9,6.2,18.5
		c6.8,6.6,7.9,6,9.6,8.1c1.7,2.1,6.2,13.8,21.4,14.7c14,0.9,17.4-5.3,17.4-5.3s4.1,1.6,4.5,4.3s-1,6.1,0.3,10.5s4.5,6.9,4.5,6.9
		s-0.5,5.9,5.6,10c5.2,3.3,7.6,2.4,7.6,2.4s-5,83.7-8,90.5c-1.4,3.3-24.5,26.9-57.9,47.7c-35.7,22.2-74.2,31.6-83.9,53.8
		s-16.7,48.3-0.5,86.1s60,96.1,72.6,108.9c4.1,4.2,4.9-0.1,9.6,1.6c9.5,3.4,15.5,12.3,12.1,25C140.8,624.7,135.1,638,144.2,657.9z"
		/>
	<g>
		<path class="st1" d="M359.6,186.2c0.8-13.8,0.7-27.6,0.5-41.5c-0.1-7.5-1.8-14.5-9.5-18.3c-7.6-3.8-15.7-2.6-23.7-2.4
			c-0.4,0-0.8,0.3-1.1,0.6c-5.1,5.3-15.3,7.1-21.9,4.2c-2.3-1-5-1.1-7.6-1.4c-1.5-0.2-3.1,0-4.7,0c-0.1-0.4-0.3-0.9-0.4-1.3
			c5.1-3.1,10.2-6.2,15.3-9.3c4.3-2.6,8.4-5.4,12.7-8c5.6-3.3,11.2-6.8,17.1-9.5c7.6-3.5,16.3-4.8,22.5-11.2
			c2.1-2.1,3.6-4.7,5.4-7.1c-0.3-0.4-0.7-0.9-1.1-1.4c-5.5,4.1-10.2,1-14.9-1.3c-4.8-2.4-9.6-3.7-15.2-2.1c-7.4,2-14.8,3-21.9-1.8
			c-5.2-3.6-10.9-3.4-16.9-1.5c-3.2,1-7,0.7-10.4,0c-3.1-0.6-6.1-2.2-9-3.6c-6.8-3.3-13.5-4.8-21-1.4c-3.9,1.8-8.9,3-13,2.2
			c-5.1-1-7.9,1.3-11.5,3.8c0.8,0.5,1.3,0.8,1.8,1.1c7,3.9,13.8,7.5,22,2.3c3.6-2.2,7.9-2.3,12.5-0.8c5.3,1.8,11.3,3.3,16.7,2.7
			c9.3-1,17,0.3,23.2,7.8c3.9,4.7,8.7,7.6,15.3,7.2c3.4-0.2,7,0.8,10.4,1.3c-1.2,1.2-2.2,1.4-3.2,1.8c-12.8,4.7-18.7,3.6-26.3-6.3
			c-4-5.2-9.5-6.9-15.9-6.9c-5.4-0.1-10.7-0.9-16.1-1.4c-4.5-0.5-9.8-2.8-13.5-1.3c-9.8,3.9-18.3,2.4-27-2.4
			c-4.4-2.4-4.5-2.3-7.8,1.8c4.7,3.2,9.1,7,14.2,9.4c3.2,1.6,7.4,1.9,11,1.5c5.1-0.6,10-3.1,15.1-3.7c10.6-1.2,20,1.2,26.9,10.4
			c4.4,5.9,10.4,9.3,18.3,8.6c2.1-0.2,4.2,0.3,7.4,0.6c-1.8,1.2-2.5,1.9-3.3,2.1c-9.1,2.9-17.9,3.7-25.4-5.7
			c-9.6-12.1-20.3-14.2-33.8-8.2c-5.7,2.5-11.7,2.6-17.2-1.2c-5.8-4-11.6-8.1-17.4-12.1c-2.4,1.9-4.5,3.5-6.9,5.5
			c7.8,1.4,13.9,4.4,17.2,11.7c0.9,2,2.5,3.9,4.2,5.4c5.7,4.9,12,3.2,18.4,1.3c8.3-2.5,16.5-3.3,22.7,4.5c4.7,6,10.8,6.9,17.7,6.2
			c1.1-0.1,2.1,0,4.2,0c-9.4,7-18,6.1-25.9-2c-4.5-4.6-9.9-5.7-15.6-3.8c-16,5.4-23.5,1.6-31.5-10c-5.9-8.5-7.9-9.5-18-7.7
			c-2.7,0.5-5.6,0.6-9.4,0.9c1.4-1.8,1.8-2.7,2.6-3.4c4.6-3.7,9.4-7.3,13.9-11.2c1.1-0.9,1.5-3.1,1.5-4.7c0.2-4.8-0.3-9.8,0.2-14.6
			c0.7-6.8,4.6-12.2,8.5-17.7c8.4-12.1,19.6-20.2,33.5-24.6c5.5-1.8,11-3.4,16.5-5c-3.4-0.4-6.6-0.1-9.8,0.3
			c-17.3,2.3-33.3,8-47.8,18.2c-10.5,7.4-18.2,17.4-26.3,27c-12,14.4-18.9,30.8-20.2,49.6c-1.2,17.1,0.9,33.7,8.3,49.3
			c2.2,4.8,4.9,9.3,7.7,14.7c-1.6-0.4-2.6-0.4-2.9-0.8c-4.9-6.6-11.1-12.7-14.3-20c-6.6-15.3-8-31.7-7-48.3c0.8-13,4-25.2,11.8-35.9
			c4.6-6.3,9.9-11.4,18.2-14.1c-7.9-4.4-12.4,0.9-17,3.9c-3.2-1.9-5.9-4.6-8.9-5.1c-9.4-1.4-16.9,2-21.9,10.4
			c-0.8,1.3-2.2,2.7-3.6,3.1c-10.3,3-16.7,11.4-17.1,21.9c-0.1,2.2-1.5,4.3-2.2,6.5c-1.1,3.4-2.6,6.8-3.1,10.3
			c-0.6,3.9,0.3,8.1-0.4,12c-1.4,6.9,0.1,12.7,4.2,18.3c1,1.3,1.6,3.3,1.5,5c-0.7,8.6,3.3,14.4,10,19c2.4,1.6,5.4,3.3,6.5,5.7
			c6.7,14.4,24.9,18.6,38.4,8.7c3.5,2.2,5,4.9,3.2,9.2c-0.6,1.3,0,3.4,0.6,4.9c2.1,4.9,4.2,9.8,6.9,14.3c1.2,2,3.9,3.2,6.1,4.4
			c1.5,0.8,3.4,0.9,5.1,1.4c-0.5,8.2-0.7,16.1-1.4,24c-1.7,18.5-3.4,37.1-5.6,55.5c-0.6,4.9-1.4,10.7-4.5,14.1
			c-16.6,18.6-37.6,31.9-58.9,44.4c-16,9.5-33.2,17.1-49.9,25.4c-23.8,11.8-38,30.1-40.7,57.2c-2.4,24.7,4.9,47,15.3,68.6
			c5.4,11.3,12,22,18.4,32.8c10.5,17.6,21,35.2,31.8,52.6c3.9,6.3,13.4,12.1,21.8,13.7c-8.5-21.4-4.5-39.9,10.9-51.9
			c13.3-10.5,31.9-12.2,47.4-3.6c0,0,17.9-25.9,11.5-38.7s-11.3-30.5-33-57.1c-10.9-13-27-13.8-29.8-13.5
			c24.7,21.1,40.3,47.4,57.8,73.7c-33.9-12.9-64.4-1.7-85.7,25.5c-4.6-6.5-1.5-11.4,3.9-15.3c-10.4-15.7-20.2-31.1-26.5-48.2
			c-4.9-13.3-9.2-26.8-13.2-40.3c-2.8-9.5-2.1-19.3,1.2-28.5c5.3-14.5,16.7-22.9,31.3-26.1c10.2-2.3,20.9-2.6,31.4-3.1
			c13-0.7,25.4-3.8,37-9.3c12.4-5.9,25-10.3,38.7-11.7c15.3-1.5,30.3-0.5,45.4,2.4c1.1,0.2,2.7,0.3,3.4-0.3c0.6-0.5,0.2-2.2,0-3.3
			c-0.2-1-0.7-2.1-1.2-3c-5.8-9.9-9.2-20.7-9.9-32c-0.4-6.2,1.2-13,3.6-18.8c5.5-13.1,17.6-16.9,30.4-19.2
			c10.1-1.8,19.2-5.1,25.2-14.2c0.9-1.4,3.3-2.4,5.1-2.8c6.4-1.2,13-1.3,19.1-3.2c4.9-1.5,10.8-3.8,12.4-10.2
			c-2.4,1-5.2,2.3-7.1,2.2c-11.1-0.3-21.4-3.3-31.4-8.4c-17.9-9-27.1-24.3-32.3-42.6c-3.3-11.7-3.2-23.9-3.1-36
			c0-4.6,0.8-8.2,4.6-11.3c4.7-3.7,8.7-8.1,13.2-12.1c2.5-2.2,4.6-2.1,7.7,0.2c4.1,3,9,5.2,13.8,6.7c2.4,0.8,4,1.1,5.1,3.5
			c3.3,7,12.1,11.7,17.6,9.7c6.2-2.3,12.1-1.5,18.2-1.1c4.9,0.4,5.3,1,4.9,6c-0.6,7.5-1.9,15,0.6,22.5c0.8,2.3,0.4,5,0.6,7.9
			c-4.5-0.4-8.1-0.8-12.5-1.2c1.2-4.1,2.2-7.5,3.3-11.4c-1.1,1-1.8,1.6-2.5,2.1c-7.7,5.3-7.3,14,0.6,18.8c3.1,1.9,5.7,4.6,8.6,6.9
			c-1.9,1.7-3.3,3.5-5.9,0.2c-1-1.3-4.2-1.4-6.3-1.2c-3,0.2-6.1,0.9-9.1,1.7c-1.2,0.3-2.1,1.7-3.1,2.6c1.2,0.6,2.3,1.6,3.6,1.8
			c3.7,0.5,7.5,0.3,11,1.2c2.7,0.7,6.9,1.7,5.5,5.7c-1.4,4.1-4.5,1.3-6.9,0.3c-1.3-0.5-2.7-0.7-4-0.9c-5.1-0.8-6.4,0.3-6.9,4.9
			c4.8,1.4,9.2,2.2,15,3.9c3.3-8.3,6.8-15.9,10.5-25.4c3.6-1.7,10.1,1.6,13.9-5.1C361.9,194.2,359.2,192.1,359.6,186.2z M324,88.7
			c-5.9,1.1-10.9-1-13.7-6.7c8.3,4.9,15.6,0.8,23.1,0c2.5-0.3,5.3,0.3,7.7,1.1c4,1.3,7.8,3.2,12,4.9c-3.3,2.4-7,3.1-10.7,0.9
			C336.1,85.2,330.1,87.6,324,88.7z M166.7,62.1c-0.6,1.1-1.3,2.2-2.3,4c-3.5-6.4-9-7.2-15.9-5.6C154.2,54.2,161.2,55.1,166.7,62.1z
			 M148.8,64.7c6-1.9,9.8,1.4,13.8,5.8c-0.9,1-1.6,1.8-2.5,2.7c-6.1-6-12.9-4.7-20.1-1.4C141.5,66.9,145.1,65.9,148.8,64.7z
			 M152.5,80c2.7,0.6,5.2,1.4,3.7,5.5c-10.4-5.8-19.8-2.9-29.5,4.7C130.5,80.2,139.7,77,152.5,80z M152.7,96.8
			c-9.2-3-9.2-3-22.2,2.1c1-6.6,9.2-9.8,18.7-7.7C152.2,91.9,153.2,93.3,152.7,96.8z M129.4,124.4c-2.7-5.6-1.1-14.1,3.5-17.9
			c5.1-4.2,12.3-4.7,17.2-0.9c0.9,0.7,1,2.4,1.5,3.6c-0.4,0.3-0.7,0.6-1.1,0.8c-6.1-2.9-11.8-4.1-16.6,2.1
			c-3.3,4.2-1.9,8.1,0.7,11.4c5,6.4,10.9,4.6,16.6,0.2c0.5,4.7-1.9,7.3-7,8.2C138.8,133,131.8,129.4,129.4,124.4z M130.4,138.7
			c1.7,0.5,3,0.6,3.8,1.3c9,6.5,11.2,6.5,19.7-0.6c0.3-0.2,0.8-0.3,1.2-0.4c0,4.4-3.2,7.7-8.7,8.8
			C139.8,149.2,133.6,145.9,130.4,138.7z M201.2,129.6c-0.3,0.3-0.7,0.7-1,1.1c-1.4-1.4-3.1-2.5-4-4.1c-3.7-6.5-8.4-11.7-16.1-13.2
			c-1-0.2-2.1-0.2-2.3-1.2C191.6,111.4,196.7,116.4,201.2,129.6z M236.2,178.7c-3.3,2.6-6.9,0.5-8.8-1.6c-5.4-6.1-10-12.9-15.1-19.7
			c4.8-1.9,6.6,0.2,8.2,2.9c2.7,4.6,6.5,7.8,11.9,8.6c3.1,0.5,6.5,1.2,6.9,4.8C239.5,175.3,237.7,177.5,236.2,178.7z M228.2,151.8
			c-3-3.4-6.2-5.2-10.9-4.8c-4,0.4-8.1,0-12.1,0.3c-8,0.6-13.2-3.8-16.7-10.1c-3.2-5.8-6.7-10.9-13.7-13c2.1-3.3,4.7-2.5,6.4-1.1
			c4.1,3.6,8.6,7.2,11.6,11.6c4.4,6.4,9.4,8.9,17.2,8.1c5.7-0.6,11.9,0,17.2,1.9c3.9,1.4,6.7,5.8,10.2,8.7
			c3.4,2.9,10.5,2.8,14.3,0.6c2.4-1.4,5.3-2.1,8-3.1C249.8,162,238.2,163.4,228.2,151.8z M242.2,141.7c-4.2-4.6-9.2-6.3-15.3-6.1
			c-8.1,0.2-17.1-7.3-19.6-15.8c-2.3-7.7-6.8-12.5-15.2-13.3c-2.9-0.3-5.8-1.5-8.7-2.3c0.2-0.5,0.3-1.1,0.5-1.6
			c7.5,0,15.3,0,21.2,5.6c3.2,3.1,5.4,7.4,7.3,11.5c3.3,7,8.4,11.1,16.2,11.8c6.5,0.6,12.5,2,17.2,7.2c5.1,5.6,11.5,3.7,17.8,2.5
			c1.9-0.4,3.9-0.7,6.4-1.1C263.4,147.4,249.4,149.6,242.2,141.7z M273.8,134.3c-6.8,2.7-13.3,1.2-18.6-3.3
			c-5.2-4.4-10.8-5.2-17.2-4.1c-7.6,1.4-15.5-2.3-19.5-8.7c-0.2-0.3-0.1-0.9-0.1-2.2c1.8,0.8,3.5,1.2,4.5,2.2c4,3.9,8.9,4.4,14.2,4
			c7.9-0.7,15.5-0.9,21.9,5.3c4.8,4.6,10.9,3.2,16.7,2.2c2.4-0.4,4.7-0.9,7-1.4c0.1,0.5,0.3,1,0.4,1.6
			C280,131.3,277,133,273.8,134.3z M336.5,140.7c-0.4,2.9-0.7,5.8-1.1,8.7c-9.1,3-16.5,0.4-20.5-7.2c3.7-1.6,7.5-3.3,11.3-4.7
			c2-0.7,4.1-1.2,6.3-1.4C335.8,135.7,336.9,137.6,336.5,140.7z M314.1,136c6-1.8,11.8-4,17.9-5.4c4-0.9,7.4,0.8,9.1,5.2
			C331.9,129.7,323.2,137.9,314.1,136z"/>
		<path class="st1" d="M356.4,46.8c8.7-1.8,14.6-0.7,17.3,8.1c-3.2-1.2-6.2-2.4-9.1-3.5c-0.4,0.6-0.8,1.2-1.2,1.8
			c2.9,2.3,5.8,4.8,8.8,6.9c1.7,1.2,4.1,1.6,5.8,2.8c1.3,0.9,2.1,2.6,3.2,3.9c-0.4,0.4-0.7,0.8-1.1,1.3c-3.4-1.5-6.8-3-10.4-4.7
			c-0.3,3.6,2.1,5.6,4.5,7.3c2,1.4,4.3,2.7,6.7,3.1c3.5,0.6,4.3,2.9,5.3,6c-6.5-0.1-11.5-2.2-15.2-7.3c-0.7,4.7,2.7,9.6,8.2,11.7
			c1.1,0.5,2.4,0.8,3.6,1c6.9,1.3,8.8,5.8,5.6,11.1c-3.4-2-6.8-3.9-10.3-5.9c-0.5,0.6-0.9,1.2-1.4,1.8c1.5,1.4,2.8,3.3,4.5,4.2
			c4.7,2.3,6.4,8,3.4,13c-1-1.7-2-3.2-3-4.8c-0.5,0-0.9,0-1.4,0c2.4,7.6,6.5,15.6-4.2,19.8c0-4.1-0.5-8.4,0.1-12.6
			c1.3-10.1-2.4-18.3-8.1-26.2c-0.8-1.1-1.6-2.9-1.3-4.1c2.4-12.1-2.1-22.3-8.6-32C357.6,48.7,357,47.8,356.4,46.8z"/>
		<path class="st1" d="M258.2,60.8c2.1-1.1,4.1-2.7,6.3-3.1c6.2-1.2,12,0.4,17.4,3.5c5.1,2.9,10.6,2.8,15.6,0.8
			c7.7-3,14.9-4,21.8,1.5c4.1,3.2,8.9,3.2,13.2,1.5c6.1-2.4,11.5-0.8,17.1,1.1c3.8,1.2,7.7,2.1,11.9,3.2c0,3.2-4.2,6.1-8.5,4.7
			c-1.9-0.6-3.7-1.5-5.5-2.4c-6.7-3.5-13.3-1.2-19.8,0.7c-4.9,1.4-9.2,0.3-13.3-2.2c-4.8-3.1-10-4.4-15.4-2.6
			c-7.5,2.5-14.8,1.6-21.6-1.9c-5.9-3-11.9-3.8-18.4-3C258.7,62,258.4,61.4,258.2,60.8z"/>
		<path class="st1" d="M271.2,52.9c4.6-4.3,8.1-4.5,13-2.9c3.5,1.1,7.9,2,11,0.7c9-3.8,17.3-4.3,25.5,1.3c3.5,2.4,7,2.7,10.6,1.3
			c8.9-3.4,17.1-0.4,25.1,2.9c1.1,0.5,1.7,2.1,2.6,3.3c-1.4,0.7-3,2.1-4.2,1.9c-2.8-0.4-5.5-2.1-8.4-2.5c-3.7-0.6-8.1-1.8-11.2-0.5
			c-6.8,2.8-12.5,1.7-18.4-1.9c-4.8-3-10.2-2.5-15.2-0.8c-7.3,2.4-14.1,4.1-21.3-0.3C278,53.8,274.5,53.7,271.2,52.9z"/>
		<path class="st1" d="M285.6,44.7c8.8-4.4,17.5-9.6,28-5.6c8.1,3.1,16.1,1.8,24.2,1.1c4.4-0.4,8.7-0.3,12,3.1
			c1.1,1.1,1.8,2.6,3.4,5.1c-2.7-0.2-4.2,0.1-5.4-0.4c-5.9-2.6-11.6-1.7-17.6-0.6c-3.5,0.6-7.8-0.1-11-1.7c-7.7-3.8-15-3.2-22.7-0.5
			c-3.3,1.1-7.1,0.9-10.7,1.3C285.6,45.9,285.6,45.3,285.6,44.7z"/>
		<path class="st1" d="M369,144.8c0.7-8.3,0.7-8.3,5.1-7.2C372.4,140.1,370.6,142.4,369,144.8z"/>
	</g>
	<path class="st1" d="M336.9,498c-1.6,12.1-5.6,62.1,41.9,80.9c32.9,12.3,52.2-12.4,58.9-17.7s14.4-19.7,14.4-19.7
		s-24.6,35.1-71.6,9.1C324.9,520.1,364,452,364,452S341.6,463.8,336.9,498z"/>
	<circle class="st2" cx="439.9" cy="507.3" r="12.9"/>
	<path class="st3" d="M209,347.1c0,0,12.4,0.5,29.2,4c16.7,3.5,25.4,10.9,25.4,10.9"/>
	<path class="st3" d="M296,358.6c0,0,26.2-12.8,37.6-22.4s17.4-22.4,17.4-22.4"/>
	<g>
		<rect x="216" y="698.4" class="st1" width="130.8" height="10.5"/>
		<rect x="128.1" y="768.7" class="st1" width="306.6" height="18.2"/>
		<rect x="264.2" y="708.8" class="st4" width="34.4" height="59.8"/>
	</g>
	<g>
		<path class="st1" d="M170.8,387.1l3.1,10.1l-2.3,0.7l-2.1-6.8l1.2,7.1l-1.6,0.5l-3-6.4l2,6.7l-2.3,0.7l-3.1-10.1l3.4-1
			c0.3,0.6,0.6,1.3,1,2.1l1.2,2.5l-0.8-4.9L170.8,387.1z"/>
		<path class="st1" d="M176.9,385.2l4.6,9.7l-2.7,0.8l-0.7-1.8l-0.9,0.3l0.4,1.9l-2.7,0.8l-1.7-10.6L176.9,385.2z M177.5,392.2
			c-0.5-1.1-1.1-2.5-1.7-4.1c0.3,2,0.6,3.5,0.8,4.4L177.5,392.2z"/>
		<path class="st1" d="M179.4,384.5l2-0.6c1.3-0.4,2.2-0.6,2.6-0.6c0.5,0,0.9,0.1,1.2,0.3c0.3,0.2,0.6,0.4,0.7,0.8
			c0.2,0.3,0.4,0.9,0.7,1.9l1.1,3.6c0.3,0.9,0.4,1.5,0.4,1.9c0,0.3-0.1,0.6-0.2,0.9c-0.2,0.2-0.4,0.4-0.7,0.6s-0.8,0.3-1.4,0.5
			l-3.3,1L179.4,384.5z M182.5,385.4l2,6.7c0.4-0.1,0.6-0.3,0.6-0.4c0-0.2,0-0.6-0.2-1.3l-1.2-3.9c-0.1-0.5-0.2-0.7-0.3-0.9
			c-0.1-0.1-0.2-0.2-0.3-0.2C183,385.3,182.8,385.3,182.5,385.4z"/>
		<path class="st1" d="M187,382.1l4.4-1.3l0.6,2l-1.8,0.5l0.6,1.9l1.6-0.5l0.6,1.9l-1.6,0.5l0.7,2.2l1.9-0.6l0.6,2l-4.6,1.4
			L187,382.1z"/>
		<path class="st1" d="M195.6,379.5l2.6-0.8c0.8-0.3,1.5-0.4,1.9-0.4c0.5,0,0.9,0.2,1.3,0.5c0.4,0.3,0.7,0.9,1,1.8
			c0.2,0.6,0.2,1,0.1,1.3c-0.1,0.3-0.4,0.6-0.9,0.9c0.7,0,1.1,0.1,1.5,0.3c0.3,0.3,0.6,0.7,0.8,1.4l0.3,0.9c0.2,0.7,0.3,1.2,0.2,1.6
			s-0.2,0.7-0.5,0.9c-0.3,0.2-1,0.5-2.1,0.8l-3.1,0.9L195.6,379.5z M199.9,384.3l0.9,2.8c0.4-0.1,0.6-0.3,0.7-0.4
			c0.1-0.1,0-0.4-0.1-0.8L201,385c-0.1-0.4-0.3-0.7-0.4-0.7C200.6,384.2,200.2,384.2,199.9,384.3z M198.8,380.4l0.7,2.3
			c0.1,0,0.2-0.1,0.3-0.1c0.3-0.1,0.4-0.2,0.4-0.3c0-0.1,0-0.5-0.2-1.1c-0.1-0.3-0.2-0.5-0.3-0.6s-0.2-0.2-0.3-0.2
			C199.2,380.3,199,380.4,198.8,380.4z"/>
		<path class="st1" d="M208.8,375.5l0.1,7.1l1.1,3.7l-2.4,0.7l-1.1-3.7l-3.8-5.9l2.4-0.7c1,1.9,1.6,3.1,1.9,3.8
			c-0.2-1.1-0.3-2.5-0.5-4.2L208.8,375.5z"/>
		<path class="st1" d="M216.8,373.1l4.4-1.3l0.6,2l-1.8,0.5l0.6,1.9l1.6-0.5l0.6,1.9l-1.6,0.5l0.7,2.2l1.9-0.6l0.6,2l-4.6,1.4
			L216.8,373.1z"/>
		<path class="st1" d="M225.8,370.3l2.1,6.8c0.3,1,0.5,1.7,0.6,2s0.1,0.6,0,0.9s-0.3,0.5-0.5,0.7c-0.3,0.2-0.7,0.4-1.3,0.5l-1.3,0.4
			l-0.5-1.8c0.2,0,0.3-0.1,0.3-0.1c0.2-0.1,0.3-0.1,0.4-0.3c0.1-0.1,0.1-0.3,0.1-0.4s-0.1-0.4-0.2-0.8l-2.2-7.1L225.8,370.3z"/>
		<path class="st1" d="M215.2,373.6l2.1,6.8c0.3,1,0.5,1.7,0.6,2s0.1,0.6,0,0.9s-0.3,0.5-0.5,0.7c-0.3,0.2-0.7,0.4-1.3,0.5l-1.3,0.4
			l-0.5-1.8c0.2,0,0.3-0.1,0.3-0.1c0.2-0.1,0.3-0.1,0.4-0.3c0.1-0.1,0.1-0.3,0.1-0.4s-0.1-0.4-0.2-0.8l-2.2-7.1L215.2,373.6z"/>
		<path class="st1" d="M235.2,373.9c0.3,1,0.5,1.7,0.6,2.2c0.1,0.4,0,0.9-0.1,1.3s-0.4,0.8-0.8,1.1c-0.4,0.3-0.8,0.6-1.4,0.7
			c-0.5,0.2-1.1,0.2-1.5,0.2s-0.9-0.2-1.3-0.5c-0.4-0.3-0.6-0.6-0.8-1s-0.4-1.1-0.7-2.2l-0.5-1.7c-0.3-1-0.5-1.7-0.6-2.2
			c-0.1-0.4-0.1-0.9,0.1-1.3c0.1-0.4,0.4-0.8,0.8-1.1c0.4-0.3,0.8-0.6,1.4-0.7c0.5-0.2,1.1-0.2,1.5-0.2c0.5,0,0.9,0.2,1.3,0.5
			c0.4,0.3,0.6,0.6,0.8,1s0.4,1.1,0.7,2.2L235.2,373.9z M231.6,371.4c-0.1-0.5-0.3-0.8-0.4-0.9c-0.1-0.1-0.2-0.1-0.4-0.1
			c-0.1,0-0.2,0.1-0.3,0.3c0,0.1,0,0.5,0.2,1l1.4,4.7c0.2,0.6,0.3,0.9,0.4,1.1c0.1,0.1,0.2,0.2,0.4,0.1s0.3-0.2,0.3-0.3
			c0-0.2-0.1-0.6-0.3-1.2L231.6,371.4z"/>
		<path class="st1" d="M234.9,367.5l4.4-1.3l0.6,2l-1.8,0.5l0.6,1.9l1.6-0.5l0.6,1.9l-1.6,0.5l0.7,2.2l1.9-0.6l0.6,2l-4.6,1.4
			L234.9,367.5z"/>
	</g>
</g>
<g id="小臂">
	<g>
		<path class="st1" d="M170.7,616c0,0,29.7,18.3,50.9,9c8.7-3.8,58.1-35.9,104.5-83.8c50.9-52.4,99.6-116.1,99.6-116.1l-54.3-40.8
			c0,0-188.1,118.5-196.4,130.6c-8.3,12.1-8.6,19.5-8.6,19.5L170.7,616z"/>
		<path class="st5" d="M425.8,425.2c0,0-48.7,63.6-99.6,116.1c-38.4,39.5-78.8,68.4-96.6,79.3c0.8-9.9,5.4-48.8,30.7-70.8
			c29.2-25.3,97.6-78.9,97.6-78.9s33.8-23.1,25.3-45.1c-7.2-18.6-26-26.8-31.6-28.9c12.3-7.8,19.9-12.6,19.9-12.6L425.8,425.2z"/>
		<path class="st5" d="M231.2,559.1c0,7.2-5.2,35.9-5.2,35.9h-17l-4.2,32.5c-17.3-1.2-34.1-11.5-34.1-11.5l-4.2-81.5
			c0,0,0.3-7.4,8.6-19.5c1.5-2.3,9.3-8.2,20.9-16.4C196,498.6,231.2,532.2,231.2,559.1z"/>
		<path class="st5" d="M276.8,525.6L248.5,547c-1.8,1.4-4.4,1-5.8-0.8l0,0c-1.4-1.8-1-4.4,0.8-5.8l28.3-21.4L276.8,525.6z"/>
		<path class="st5" d="M371.2,454.2l-86.6,65.5l-5-6.6l86.6-65.5c1.8-1.4,4.4-1,5.8,0.8l0,0C373.4,450.2,373.1,452.8,371.2,454.2z"
			/>
		<g>
			<circle class="st6" cx="214" cy="549.8" r="10.7"/>
		</g>
		<path class="st0" d="M219.2,601.8c-4.7,0-8.5,3.8-8.5,8.5s3.8,8.5,8.5,8.5s8.5-3.8,8.5-8.5S224,601.8,219.2,601.8z M219.2,613.7
			c-1.9,0-3.4-1.5-3.4-3.4s1.5-3.4,3.4-3.4s3.4,1.5,3.4,3.4C222.7,612.2,221.2,613.7,219.2,613.7z"/>
		<g>
			<circle class="st1" cx="263.5" cy="577.5" r="4.8"/>
			<circle class="st1" cx="279.4" cy="563.2" r="4.8"/>
			<circle class="st1" cx="295.1" cy="548.9" r="4.8"/>
			<circle class="st1" cx="311" cy="534.6" r="4.8"/>
			<circle class="st1" cx="326.8" cy="520.3" r="4.8"/>
			<circle class="st1" cx="342.6" cy="506" r="4.8"/>
			<circle class="st1" cx="358.2" cy="491.7" r="4.8"/>
		</g>
		<g>
			<path class="st5" d="M246.5,497.2l-18.8,14.1c-3.8,2.9-9.2,2.2-12.2-1.5l-12.9-15.7c9.4-6.6,21.1-14.5,33.9-23l11.3,13.2
				C251.2,488.2,250.6,494.1,246.5,497.2z"/>
			<path class="st5" d="M283.2,469.9l-17.5,13.2c-3.6,2.7-8.6,2.1-11.4-1.4l-12-14.4c10.3-6.8,21.3-14,32.2-21.1l10,11.6
				C287.8,461.5,287.1,467.1,283.2,469.9z"/>
			<path class="st5" d="M319,443.7l-16.3,12.2c-3.3,2.5-8,1.9-10.6-1.3l-10.7-12.7c10.2-6.6,20.5-13.2,30.1-19.4l8.6,10
				C323.1,435.9,322.6,441,319,443.7z"/>
			<path class="st5" d="M351.1,420l-15,11.3c-3,2.3-7.3,1.8-9.8-1.2l-9.2-11.2l27.8-17.6l7.3,8.5C354.9,412.8,354.4,417.5,351.1,420
				z"/>
		</g>
		<line class="st7" x1="234.8" y1="527.2" x2="362.5" y2="432.8"/>
	</g>
	<g>
		<path class="st4" d="M159.8,533.9c-23.1,0-41.8,18.7-41.8,41.8s18.7,41.8,41.8,41.8s41.8-18.7,41.8-41.8S182.8,533.9,159.8,533.9z
			 M159.8,601.5c-14.3,0-25.9-11.6-25.9-25.9c0-14.3,11.6-25.9,25.9-25.9s25.9,11.6,25.9,25.9C185.6,590,174.1,601.5,159.8,601.5z"
			/>
		<path class="st8" d="M159.8,549.8c-14.3,0-25.9,11.6-25.9,25.9c0,14.3,11.6,25.9,25.9,25.9s25.9-11.6,25.9-25.9
			C185.6,561.4,174.1,549.8,159.8,549.8z M159.8,588.4c-7,0-12.7-5.7-12.7-12.7s5.7-12.7,12.7-12.7s12.7,5.7,12.7,12.7
			S166.8,588.4,159.8,588.4z"/>
		<path class="st1" d="M172.4,575.7c0,7-5.7,12.7-12.7,12.7s-12.7-5.7-12.7-12.7s5.7-12.7,12.7-12.7
			C166.8,563,172.4,568.7,172.4,575.7z"/>
	</g>
</g>
<g id="手">
	<g>
		<path class="st9" d="M539.5,398.2l-65.1,46.5c-3.9,2.8-9.3,1.9-12.1-2l-9.3-13.1c-2.8-3.9-1.9-9.3,2-12.1l65.1-46.5
			c3.9-2.8,9.3-1.9,12.1,2l9.3,13.1C544.4,390,543.5,395.5,539.5,398.2z"/>
		<path class="st9" d="M468.3,298.4l-65.1,46.5c-3.9,2.8-9.3,1.9-12.1-2l-9.3-13.1c-2.8-3.9-1.9-9.3,2-12.1l65.1-46.5
			c3.9-2.8,9.3-1.9,12.1,2l9.3,13.1C473.1,290.1,472.2,295.6,468.3,298.4z"/>
		
			<rect x="449.3" y="313.5" transform="matrix(0.814 -0.5809 0.5809 0.814 -122.038 334.7874)" class="st9" width="24.8" height="88.9"/>
	</g>
	<g>
		<path class="st1" d="M377.8,378.6c0,0-0.2-8.8,6.5-14c7.4-5.8,27.5-34.9,30.3-35.5c2.8-0.5,4.6-0.4,4.6-0.4l12.9-14.6
			c0,0,3.9-2.3,7.1,0.3c3.2,2.6,1.3,9.5,1.3,9.5s20.4-18.3,25.4-18.3s18.3-0.8,20.8-0.8s10.5,2.5,10,5.4c-0.5,5.7-7.4,10.2-7.4,10.2
			s19.2,11.6,21.2,13.1c2,1.5,2.6,3.7,0.7,6.6c-4.4,6.6-19.1,1.4-19.1,1.4s9.6,5,13.4,10.3s5.9,8.3,8.1,12.7c2.7,5-6.3,7.6-6.3,7.6
			s-0.4,12.2-0.8,15.6c-0.4,3.3-5.9,11.3-9.5,11.2c-4.6,0-6.8-10.7-6.8-10.7s-25.9,18.7-34.7,24s-29.9,12.5-29.9,12.5L377.8,378.6z"
			/>
		<path class="st5" d="M451.6,334.4l-38.7,32.2l-8.1-9.7l34.6-28.8c3.5-3,8.8-2.5,11.8,1.1l0.8,0.9
			C453.1,331.4,453,333.3,451.6,334.4z"/>
		<path class="st5" d="M465.6,350.3l-38,27.6l-7.4-10.2l35.1-25.5c3.6-2.6,8.7-1.8,11.3,1.8l0,0C468.1,346,467.6,348.9,465.6,350.3z
			"/>
		<path class="st5" d="M478.4,366.6l-37.8,27.5l-8.5-11.7l38.7-28.1c2-1.4,4.7-1,6.2,1l2.7,3.7C481.4,361.3,480.9,364.8,478.4,366.6
			z"/>
		<path class="st5" d="M487.8,382l-44.5,28.1l-6.3-9.9l46-29.1c1.9-1.2,4.3-0.8,5.6,0.9c0.1,0.2,0.2,0.4,0.3,0.6l1.1,3
			C490.9,377.9,490,380.6,487.8,382z"/>
		<path class="st5" d="M489,367.9c0,0,3.6,2.8,4,5.7c0.4,2.9,0.4,4.8,0.4,4.8h6.5c2.1,0,3.8-1.8,3.8-3.9l-0.1-2.9
			c-0.1-2-1.7-3.6-3.8-3.6H489V367.9z"/>
		<path class="st5" d="M478.5,349.6c0,0,3.4,0.2,5.3,3.7c1.9,3.6,1.2,6.1,1.2,6.1l12.4-4.4c0,0,0.8-2,0-4.6s-2.5-3.8-2.5-3.8
			L478.5,349.6z"/>
		<path class="st5" d="M461.6,335.9c0,0,4.4,0.1,6.8,2s2.5,4.9,2.5,4.9s15.8-9.6,16.4-11.2s-1.2-7.1-5.9-6.9
			C474.1,325,461.6,335.9,461.6,335.9z"/>
		<path class="st5" d="M444.8,322.8c-0.2,0,5.7-0.3,8.2,0.9c2.5,1.2,4.1,3.4,4.1,3.4l14-13c0,0,0.2-4.8-5.1-5.1
			c-5.3-0.3-6.3,0.8-6.3,0.8L444.8,322.8z"/>
		<path class="st5" d="M401.5,346.3l6.7,4.1c0,0,17.5-14.4,18-16.2c0.5-1.8-3.7-5-7-4.1S401.5,346.3,401.5,346.3z"/>
		<path class="st5" d="M424.4,327c0,0,4.1,4.3,5,3.6c0.9-0.7,7.9-8.6,8-11.9s-2.1-3.9-3.5-3.3C432.5,316.1,424.4,327,424.4,327z"/>
		<path class="st5" d="M467.9,305.4c0,0,4.4,1.4,5.8,3.6s1.7,5,1.7,5s18.8,0.4,21-3.3c2.2-3.7-8.1-5.9-9.7-5.9
			C486.5,304.7,467.9,305.4,467.9,305.4z"/>
		<path class="st5" d="M511.1,370.9l-0.3-0.4c0,0,0,0,0.1,0L511.1,370.9z"/>
		<path class="st5" d="M511.6,339.5c-0.1,0.1-0.1,0.2-0.2,0.4c-1.3,0-4.7,0-8.2-0.3c-4.6-0.4-12.7-8.2-12.7-8.2s0-4.7-3.1-7.2
			c-3-2.4-7.1-1.7-7.5-1.6l9.6-2.2l0,0c0.6,0.3,19.2,11.6,21.2,13.1C512.3,334.8,513,336.9,511.6,339.5z"/>
		<path class="st5" d="M511,370.4C510.9,370.4,510.9,370.4,511,370.4l-9.4-13.3c0,0,0.5-2.6,0.4-5.3c0-0.2,0-0.4,0-0.7
			c-0.2-2.7-2.7-5.4-3.1-5.7c2.5,1.8,5.2,4,6.8,6.2c3.8,5.3,6,8.3,8.1,12.7C515.2,367.1,513.1,369.1,511,370.4z"/>
	</g>
	<g>
		<path class="st4" d="M395.9,373.4c-18.9,0-34.2,15.3-34.2,34.2c0,18.9,15.3,34.2,34.2,34.2c18.9,0,34.2-15.3,34.2-34.2
			C430.1,388.7,414.8,373.4,395.9,373.4z M395.9,428.8c-11.7,0-21.2-9.5-21.2-21.2s9.5-21.2,21.2-21.2s21.2,9.5,21.2,21.2
			S407.6,428.8,395.9,428.8z"/>
		<path class="st8" d="M395.9,386.4c-11.7,0-21.2,9.5-21.2,21.2s9.5,21.2,21.2,21.2s21.2-9.5,21.2-21.2S407.6,386.4,395.9,386.4z
			 M395.9,418c-5.7,0-10.4-4.6-10.4-10.4c0-5.7,4.6-10.4,10.4-10.4c5.7,0,10.4,4.7,10.4,10.4C406.1,413.4,401.6,418,395.9,418z"/>
		<path class="st1" d="M406.1,407.6c0,5.7-4.6,10.4-10.4,10.4c-5.7,0-10.4-4.6-10.4-10.4c0-5.7,4.6-10.4,10.4-10.4
			C401.6,397.2,406.1,401.9,406.1,407.6z"/>
	</g>
</g>
</svg>
